<svg width="219" height="47" viewBox="0 0 219 47" fill="none" xmlns="http://www.w3.org/2000/svg">
<rect x="0.5" y="1.02002" width="218" height="45" rx="22.5" fill="#67AEC6"/>
<rect x="0.5" y="1.02002" width="218" height="45" rx="22.5" stroke="#67AEC6"/>
<path d="M35.96 28.496C36.4187 28.496 36.808 28.4214 37.128 28.272C37.4587 28.112 37.7253 27.904 37.928 27.648C38.1413 27.3814 38.296 27.0827 38.392 26.752C38.4987 26.4107 38.552 26.0534 38.552 25.68V25.488H39.896V25.68C39.896 26.2454 39.8107 26.7787 39.64 27.28C39.4693 27.7707 39.2187 28.2027 38.888 28.576C38.5573 28.9387 38.1467 29.2267 37.656 29.44C37.1653 29.6427 36.6 29.744 35.96 29.744C34.7227 29.744 33.7573 29.3547 33.064 28.576C32.3707 27.7974 32.024 26.6614 32.024 25.168V22.672C32.024 21.2214 32.3707 20.096 33.064 19.296C33.7573 18.496 34.7227 18.096 35.96 18.096C36.6 18.096 37.1653 18.2027 37.656 18.416C38.1467 18.6187 38.5573 18.9067 38.888 19.28C39.2187 19.6427 39.4693 20.0747 39.64 20.576C39.8107 21.0667 39.896 21.5947 39.896 22.16V22.352H38.552V22.16C38.5413 21.7974 38.4827 21.4454 38.376 21.104C38.28 20.7627 38.1253 20.464 37.912 20.208C37.7093 19.9414 37.448 19.7334 37.128 19.584C36.808 19.424 36.4187 19.344 35.96 19.344C35.096 19.344 34.4453 19.6587 34.008 20.288C33.5813 20.9174 33.368 21.744 33.368 22.768V25.072C33.368 26.1707 33.5813 27.0187 34.008 27.616C34.4453 28.2027 35.096 28.496 35.96 28.496ZM43.1969 18.32V25.744C43.1969 26.6507 43.4049 27.3387 43.8209 27.808C44.2475 28.2667 44.8715 28.496 45.6929 28.496C46.5142 28.496 47.1329 28.2667 47.5489 27.808C47.9755 27.3387 48.1889 26.6507 48.1889 25.744V18.32H49.5329V25.744C49.5329 27.0454 49.1915 28.0374 48.5089 28.72C47.8262 29.4027 46.8875 29.744 45.6929 29.744C44.4982 29.744 43.5595 29.4027 42.8769 28.72C42.1942 28.0374 41.8529 27.0454 41.8529 25.744V18.32H43.1969ZM51.9858 18.32H53.3298V28.272H59.1858V29.52H51.9858V18.32ZM61.3506 18.32H69.2226V19.568H65.9586V29.52H64.6146V19.568H61.3506V18.32ZM72.5875 18.32V25.744C72.5875 26.6507 72.7955 27.3387 73.2115 27.808C73.6382 28.2667 74.2622 28.496 75.0835 28.496C75.9048 28.496 76.5235 28.2667 76.9395 27.808C77.3662 27.3387 77.5795 26.6507 77.5795 25.744V18.32H78.9235V25.744C78.9235 27.0454 78.5822 28.0374 77.8995 28.72C77.2168 29.4027 76.2782 29.744 75.0835 29.744C73.8888 29.744 72.9502 29.4027 72.2675 28.72C71.5848 28.0374 71.2435 27.0454 71.2435 25.744V18.32H72.5875ZM88.3844 29.52H87.0404V25.776C87.0404 25.4987 86.9764 25.2854 86.8484 25.136C86.7204 24.9867 86.4964 24.912 86.1764 24.912H82.6884V29.52H81.3444V18.32H85.3444C85.9204 18.32 86.4217 18.4054 86.8484 18.576C87.275 18.736 87.627 18.9547 87.9044 19.232C88.1924 19.5094 88.4057 19.8347 88.5444 20.208C88.6937 20.5707 88.7684 20.9547 88.7684 21.36V21.84C88.7684 22.256 88.651 22.672 88.4164 23.088C88.1924 23.504 87.8404 23.824 87.3604 24.048V24.24C87.6804 24.2934 87.931 24.4214 88.1124 24.624C88.2937 24.8267 88.3844 25.1147 88.3844 25.488V29.52ZM82.6884 23.664H85.1844C85.9417 23.664 86.5017 23.504 86.8644 23.184C87.2377 22.8534 87.4244 22.3734 87.4244 21.744V21.456C87.4244 20.8907 87.2377 20.4374 86.8644 20.096C86.5017 19.744 85.9417 19.568 85.1844 19.568H82.6884V23.664ZM91.2853 18.32H98.0693V19.568H92.6293V23.28H97.9733V24.528H92.6293V28.272H98.1653V29.52H91.2853V18.32ZM118.655 24.528H117.103V29.52H113.519C112.986 29.52 112.511 29.4454 112.095 29.296C111.679 29.1467 111.332 28.944 111.055 28.688C110.778 28.4214 110.564 28.112 110.415 27.76C110.276 27.3974 110.207 27.008 110.207 26.592V26.4C110.207 25.792 110.388 25.28 110.751 24.864C111.114 24.4374 111.562 24.1494 112.095 24V23.808C111.562 23.6694 111.114 23.392 110.751 22.976C110.388 22.5494 110.207 22.032 110.207 21.424V21.232C110.207 20.816 110.276 20.432 110.415 20.08C110.564 19.7174 110.778 19.408 111.055 19.152C111.332 18.896 111.679 18.6934 112.095 18.544C112.511 18.3947 112.986 18.32 113.519 18.32H115.567V19.568H113.615C112.986 19.568 112.474 19.728 112.079 20.048C111.684 20.3574 111.487 20.784 111.487 21.328V21.424C111.487 22 111.674 22.4534 112.047 22.784C112.42 23.1147 112.927 23.28 113.567 23.28H115.759V21.584H117.103V23.28H118.655V24.528ZM115.759 28.272V24.528H113.567C112.927 24.528 112.42 24.6987 112.047 25.04C111.674 25.3707 111.487 25.824 111.487 26.4V26.496C111.487 27.0507 111.684 27.488 112.079 27.808C112.474 28.1174 112.986 28.272 113.615 28.272H115.759ZM129.401 18.32H130.841L133.769 28.944H133.961L136.889 18.32H138.329L135.161 29.52H132.569L129.401 18.32ZM146.062 26.736H141.262L140.446 29.52H139.006L142.398 18.32H144.926L148.318 29.52H146.878L146.062 26.736ZM143.566 18.896L141.63 25.488H145.694L143.758 18.896H143.566ZM149.955 18.32H151.299V28.272H157.155V29.52H149.955V18.32ZM160.759 18.32V25.744C160.759 26.6507 160.967 27.3387 161.383 27.808C161.81 28.2667 162.434 28.496 163.255 28.496C164.077 28.496 164.695 28.2667 165.111 27.808C165.538 27.3387 165.751 26.6507 165.751 25.744V18.32H167.095V25.744C167.095 27.0454 166.754 28.0374 166.071 28.72C165.389 29.4027 164.45 29.744 163.255 29.744C162.061 29.744 161.122 29.4027 160.439 28.72C159.757 28.0374 159.415 27.0454 159.415 25.744V18.32H160.759ZM169.66 18.32H176.444V19.568H171.004V23.28H176.348V24.528H171.004V28.272H176.54V29.52H169.66V18.32ZM185.489 21.552C185.489 21.1894 185.414 20.8694 185.265 20.592C185.126 20.3147 184.934 20.0854 184.689 19.904C184.444 19.7227 184.161 19.584 183.841 19.488C183.521 19.392 183.185 19.344 182.833 19.344C182.524 19.344 182.23 19.3867 181.953 19.472C181.676 19.5467 181.425 19.6587 181.201 19.808C180.988 19.9574 180.817 20.144 180.689 20.368C180.561 20.5814 180.497 20.832 180.497 21.12V21.216C180.497 21.5254 180.561 21.792 180.689 22.016C180.817 22.2294 181.004 22.416 181.249 22.576C181.505 22.7254 181.82 22.8534 182.193 22.96C182.566 23.056 183.004 23.1414 183.505 23.216C184.678 23.3974 185.542 23.744 186.097 24.256C186.652 24.7574 186.929 25.4347 186.929 26.288V26.48C186.929 26.96 186.844 27.4027 186.673 27.808C186.513 28.2027 186.268 28.544 185.937 28.832C185.617 29.12 185.217 29.344 184.737 29.504C184.257 29.664 183.702 29.744 183.073 29.744C182.358 29.744 181.724 29.6427 181.169 29.44C180.625 29.2267 180.166 28.9387 179.793 28.576C179.43 28.2027 179.153 27.7707 178.961 27.28C178.769 26.7787 178.673 26.2347 178.673 25.648V25.168H180.017V25.552C180.017 26.5334 180.284 27.2694 180.817 27.76C181.361 28.2507 182.113 28.496 183.073 28.496C183.905 28.496 184.529 28.3147 184.945 27.952C185.372 27.5787 185.585 27.088 185.585 26.48V26.384C185.585 25.7974 185.366 25.3494 184.929 25.04C184.502 24.7307 183.804 24.5067 182.833 24.368C182.268 24.2934 181.756 24.1814 181.297 24.032C180.849 23.872 180.465 23.6694 180.145 23.424C179.825 23.168 179.58 22.864 179.409 22.512C179.238 22.16 179.153 21.744 179.153 21.264V21.072C179.153 20.6347 179.244 20.2347 179.425 19.872C179.606 19.5094 179.857 19.1947 180.177 18.928C180.508 18.6614 180.897 18.4587 181.345 18.32C181.804 18.1707 182.305 18.096 182.849 18.096C183.478 18.096 184.038 18.1867 184.529 18.368C185.03 18.5494 185.452 18.7947 185.793 19.104C186.134 19.4027 186.39 19.76 186.561 20.176C186.742 20.5814 186.833 21.008 186.833 21.456V22.128H185.489V21.552Z" fill="white"/>
</svg>
