<svg width="44" height="45" viewBox="0 0 44 45" fill="none" xmlns="http://www.w3.org/2000/svg">
<g id="transport" clip-path="url(#clip0_25_1348)">
<path id="Vector" d="M21.0835 23.4167L30.2502 14.25" stroke="#231F20" stroke-width="2" stroke-miterlimit="10" stroke-linecap="round"/>
<path id="Vector_2" d="M43.0833 6.91669L35.75 14.25H30.25V8.75002L37.5833 1.41669V6.91669H43.0833Z" stroke="#231F20" stroke-width="2" stroke-linecap="round" stroke-linejoin="round"/>
<path id="Vector_3" d="M41.2498 23.4167C41.2498 34.5633 32.2298 43.5833 21.0832 43.5833C9.9365 43.5833 0.916504 34.5633 0.916504 23.4167C0.916504 12.27 9.9365 3.25 21.0832 3.25" stroke="#231F20" stroke-width="2" stroke-linecap="round" stroke-linejoin="round"/>
<path id="Vector_4" d="M39.6732 15.57C40.6998 17.99 41.2498 20.63 41.2498 23.4167C41.2498 26.2033 40.6815 28.8617 39.6732 31.2633C38.6465 33.6833 37.1798 35.8467 35.3465 37.68C33.5132 39.5133 31.3498 40.98 28.9298 42.0067C26.5098 43.0333 23.8698 43.5833 21.0832 43.5833C18.2965 43.5833 15.6382 43.015 13.2365 42.0067C10.8165 40.98 8.65317 39.5133 6.81984 37.68C4.9865 35.8467 3.51984 33.6833 2.49317 31.2633C1.4665 28.8433 0.916504 26.2033 0.916504 23.4167C0.916504 20.63 1.48484 17.9717 2.49317 15.57C3.51984 13.15 4.9865 10.9867 6.81984 9.15333C8.65317 7.32 10.8165 5.85333 13.2365 4.82667C15.6565 3.8 18.2965 3.25 21.0832 3.25C23.8698 3.25 26.5282 3.81833 28.9298 4.82667" stroke="#231F20" stroke-width="2" stroke-linecap="round" stroke-linejoin="round"/>
<path id="Vector_5" d="M30.3783 19.4933C30.8917 20.7033 31.1667 22.0233 31.1667 23.4166C31.1667 24.81 30.8917 26.13 30.3783 27.34C29.865 28.55 29.1317 29.6316 28.215 30.5483C27.2983 31.465 26.2167 32.1983 25.0067 32.7116C23.7967 33.225 22.4767 33.5 21.0833 33.5C19.69 33.5 18.37 33.225 17.16 32.7116C15.95 32.1983 14.8683 31.465 13.9517 30.5483C13.035 29.6316 12.3017 28.55 11.7883 27.34C11.275 26.13 11 24.81 11 23.4166C11 22.0233 11.275 20.7033 11.7883 19.4933C12.3017 18.2833 13.035 17.2016 13.9517 16.285C14.8683 15.3683 15.95 14.635 17.16 14.1216C18.37 13.6083 19.69 13.3333 21.0833 13.3333C22.4767 13.3333 23.7967 13.6083 25.0067 14.1216" stroke="#231F20" stroke-width="2" stroke-linecap="round" stroke-linejoin="round"/>
</g>
<defs>
<clipPath id="clip0_25_1348">
<rect width="44" height="44" fill="white" transform="translate(0 0.5)"/>
</clipPath>
</defs>
</svg>
