<svg width="21" height="21" viewBox="0 0 21 21" fill="none" xmlns="http://www.w3.org/2000/svg">
<path id="Vector" fill-rule="evenodd" clip-rule="evenodd" d="M5.39855 10.4066C5.39855 7.52859 7.73996 5.17899 10.618 5.17899C13.4961 5.17899 15.8457 7.52859 15.8457 10.4066C15.8457 13.2847 13.5042 15.6343 10.618 15.6343C7.73183 15.6343 5.39855 13.2928 5.39855 10.4066ZM16.0164 0.178955H5.22776C2.56921 0.178955 0.390381 2.3497 0.390381 5.01638V15.805C0.390381 18.4636 2.56921 20.6424 5.22776 20.6424H16.0164C18.6831 20.6424 20.8539 18.4636 20.8539 15.805V5.01638C20.8539 2.3497 18.6831 0.178955 16.0164 0.178955ZM5.22776 1.39033H16.0164C18.0164 1.39033 19.6424 3.01637 19.6424 5.01638V15.805C19.6424 17.8051 18.0164 19.431 16.0164 19.431H5.22776C3.22775 19.431 1.60176 17.8051 1.60176 15.805V5.01638C1.60176 3.01637 3.22775 1.39033 5.22776 1.39033ZM17.0897 2.9188C16.5043 2.9188 16.0246 3.39034 16.0246 3.98384C16.0246 4.57734 16.4962 5.04888 17.0897 5.04888C17.6832 5.04888 18.1546 4.57734 18.1546 3.98384C18.1546 3.39034 17.6832 2.9188 17.0897 2.9188ZM17.2115 10.4066C17.2115 6.76436 14.2603 3.805 10.6099 3.805C6.95946 3.805 4.00824 6.76436 4.00824 10.4066C4.00824 14.0489 6.96759 17.0083 10.6099 17.0083C14.2522 17.0083 17.2115 14.0571 17.2115 10.4066Z" fill="white"/>
</svg>
