<svg width="20" height="19" viewBox="0 0 20 19" fill="none" xmlns="http://www.w3.org/2000/svg">
<path id="Vector" fill-rule="evenodd" clip-rule="evenodd" d="M0.914856 9.66262V18.6789H5.20758V6.3943H0.914856V9.66262ZM19.232 10.1748C18.9475 7.84961 17.8905 6.40244 14.7442 6.40244C12.8986 6.40244 11.6629 7.07722 11.1426 8.06097H11.0856V6.40244H7.66288V18.687H11.2483V12.5976C11.2483 10.9959 11.5653 9.44309 13.5328 9.44309C15.5003 9.44309 15.6547 11.2724 15.6547 12.7114V18.687H19.3377V11.939C19.3377 11.3049 19.3052 10.7195 19.2402 10.1748H19.232ZM3.06122 0.264221C1.87422 0.264221 0.914856 1.22359 0.914856 2.41058C0.914856 3.59758 1.87422 4.55689 3.06122 4.55689C4.24821 4.55689 5.20758 3.59758 5.20758 2.41058C5.20758 1.22359 4.24821 0.264221 3.06122 0.264221Z" fill="white"/>
</svg>
