<svg width="34" height="34" viewBox="0 0 34 34" fill="none" xmlns="http://www.w3.org/2000/svg">
<g id="transport" clip-path="url(#clip0_27_1423)">
<path id="Vector" d="M27.6252 33.2916C30.7548 33.2916 33.2918 30.7545 33.2918 27.6249C33.2918 24.4953 30.7548 21.9583 27.6252 21.9583C24.4955 21.9583 21.9585 24.4953 21.9585 27.6249C21.9585 30.7545 24.4955 33.2916 27.6252 33.2916Z" stroke="#231F20" stroke-width="2" stroke-linecap="round" stroke-linejoin="round"/>
<path id="Vector_2" d="M17.7082 12.0416C20.8378 12.0416 23.3748 9.50453 23.3748 6.37492C23.3748 3.2453 20.8378 0.708252 17.7082 0.708252C14.5786 0.708252 12.0415 3.2453 12.0415 6.37492C12.0415 9.50453 14.5786 12.0416 17.7082 12.0416Z" stroke="#231F20" stroke-width="2" stroke-linecap="round" stroke-linejoin="round"/>
<path id="Vector_3" d="M6.37516 33.2916C9.50478 33.2916 12.0418 30.7545 12.0418 27.6249C12.0418 24.4953 9.50478 21.9583 6.37516 21.9583C3.24555 21.9583 0.708496 24.4953 0.708496 27.6249C0.708496 30.7545 3.24555 33.2916 6.37516 33.2916Z" stroke="#231F20" stroke-width="2" stroke-linecap="round" stroke-linejoin="round"/>
<path id="Vector_4" d="M9.2085 21.9584L14.8752 12.0417" stroke="#231F20" stroke-width="2" stroke-linecap="round" stroke-linejoin="round"/>
<path id="Vector_5" d="M26.2082 21.9584L20.5415 12.0417" stroke="#231F20" stroke-width="2" stroke-linecap="round" stroke-linejoin="round"/>
</g>
<defs>
<clipPath id="clip0_27_1423">
<rect width="34" height="34" fill="white"/>
</clipPath>
</defs>
</svg>
