<svg width="190" height="46" viewBox="0 0 190 46" fill="none" xmlns="http://www.w3.org/2000/svg">
<g id="Main" clip-path="url(#clip0_1083_1993)">
<path id="Vector" d="M12.8998 31.9783C12.8998 34.5366 13.1166 36.2764 13.8267 37.149C14.5367 38.0759 15.5123 38.5095 19.4906 38.5095C24.4445 38.5095 25.9676 38.3469 29.1817 32.0325C29.6153 31.4905 30.8673 31.7073 31.2521 32.3577C30.9811 35.187 29.6749 39.7073 28.9107 41.1761C26.0272 41.0677 20.8023 41.0135 16.3361 41.0135H9.04075C6.53668 41.0135 3.81581 41.0677 0.439121 41.1761C-0.0486837 40.8509 -0.157085 39.5989 0.27652 39.2683L2.34698 38.9973C4.79684 38.6721 5.12205 38.233 5.12205 33.1707V12.9268C5.12205 7.86448 4.79684 7.37667 2.34698 7.04605L0.769744 6.82925C0.227739 6.50404 0.227739 5.25201 0.878146 4.92139C3.70741 5.02979 6.42828 5.08399 9.04075 5.08399C11.6532 5.08399 14.3741 5.02979 17.0949 4.92139C17.5286 5.24659 17.5286 6.49862 17.0949 6.82925L15.6803 7.04605C13.2304 7.42545 12.9052 7.86448 12.9052 12.9268V31.9783H12.8998Z" fill="white"/>
<path id="Vector_2" d="M34.8942 39.2195C38.1625 38.7859 39.4145 37.4797 41.2086 35.0298C42.7858 32.9593 45.7289 28.7154 48.0649 25.2303C48.5527 24.5203 48.8292 23.8699 48.8292 23.5447C48.8292 23.3279 48.5582 22.6179 47.8481 21.6368C46.0541 18.9702 42.6232 13.5826 40.0649 9.93495C38.8129 8.14091 37.6693 7.43088 35.2194 6.99728L34.2926 6.83468C33.8048 6.40107 33.8048 5.25744 34.3468 4.92682C36.0866 5.03522 39.5175 5.08942 42.84 5.08942C47.2519 5.08942 49.4254 5.03522 51.1164 4.92682C51.7126 5.19782 51.7126 6.39565 51.3332 6.83468L50.1354 7.05148C49.2628 7.21408 48.2872 7.48508 48.2872 7.86991C48.2872 8.35771 48.504 8.85094 49.1598 9.99457C50.6286 12.5528 52.5907 15.5447 54.2763 17.9946C56.2926 14.9485 58.0866 12.2764 59.7722 9.39294C60.3685 8.41191 60.3685 8.03251 60.3685 7.76151C60.3685 7.59891 59.9891 7.3279 59.279 7.2195L57.1002 6.8401C56.6666 6.46069 56.6666 5.20866 57.2628 4.93224C58.9484 5.04064 60.6937 5.09484 63.2519 5.09484C65.8102 5.09484 68.0975 5.04064 69.8373 4.93224C70.3793 5.20324 70.4335 6.34687 70.0541 6.8401L67.7668 7.1653C66.6232 7.3279 65.6422 7.5447 64.6666 8.52573C62.0541 11.1924 59.6584 14.7859 57.1002 18.271C56.5582 19.0352 56.0107 19.8482 56.0107 20.1192C56.0107 20.3902 56.2275 20.9919 56.775 21.8049C60.8563 28.1192 63.5229 32.2005 65.485 35.1436C67.3928 38.0271 68.7533 38.7913 70.8183 39.0623L72.504 39.2791C72.8834 39.6585 72.8834 40.8022 72.3414 41.187C69.9457 41.0786 68.2601 41.0244 63.8481 41.0244C60.092 41.0244 57.6422 41.0786 54.7045 41.187C54.2167 40.9702 53.9945 39.5555 54.5419 39.2791L56.0107 39.1165C57.3712 38.9539 58.027 38.6829 58.027 38.3523C58.027 37.9187 57.8102 37.4255 56.4498 35.1382C55.6313 33.6694 51.4958 27.3008 50.6774 26.2656C48.5527 29.3658 45.9945 33.5068 44.2004 36.9322C43.821 37.6965 43.7126 38.0759 43.7126 38.4011C43.7126 38.7263 44.3088 38.9973 45.4525 39.1111L46.8671 39.2737C47.3549 39.6531 47.3007 40.9593 46.7045 41.1816C44.3088 41.0732 41.859 41.019 39.5717 41.019C37.7777 41.019 35.4904 41.0732 33.8536 41.1816C33.3115 40.9106 33.1435 39.7127 33.6367 39.3875L34.8888 39.2249L34.8942 39.2195Z" fill="white"/>
<path id="Vector_3" d="M105.339 34.8618C105.339 37.149 105.447 38.2385 106.482 38.4553C106.699 38.6721 106.645 39.5989 106.32 39.7615C105.393 39.9241 103.978 40.0867 102.509 40.5799C100.601 41.1761 95.924 41.8862 92.8725 41.8862C89.1706 41.8862 86.0161 41.5068 82.1462 39.9783C75.7776 37.4201 71.4199 31.3767 71.4199 23.5393C71.4199 16.7371 74.466 10.748 81.0026 7.10027C84.7045 5.08401 89.111 4.2168 93.7397 4.2168C99.7831 4.2168 102.775 5.52303 104.52 5.52303C104.683 7.15447 104.737 10.9648 105.284 14.2873C105.068 14.8835 103.599 14.9431 103.214 14.3957C101.474 9.27913 98.0432 6.72086 92.9809 6.72086C84.3251 6.72086 80.1354 13.9079 80.1354 22.5095C80.1354 30.2927 82.802 34.9214 86.3413 37.3171C88.9538 39.0569 91.7831 39.3875 93.7993 39.3875C96.8996 39.3875 97.5554 38.7913 97.5554 35.252V31.8211C97.5554 28.8835 97.2302 28.5528 94.6178 28.1734L92.2221 27.8482C91.6259 27.523 91.6259 26.271 92.2221 25.9404C96.0866 26.0488 98.7533 26.103 101.42 26.103C104.087 26.103 106.699 26.0488 108.553 25.9404C108.986 26.2656 108.986 27.5176 108.553 27.8482L107.301 28.065C105.669 28.336 105.339 28.8835 105.339 31.8211V34.8672V34.8618Z" fill="white"/>
<path id="Vector_4" d="M128.477 4.57996H138.873V5.46342H129.496V12.103H137.946V12.9865H129.496V21.1545H128.477V4.57996Z" fill="white"/>
<path id="Vector_5" d="M148.618 18.7805H148.569C148.428 19.1382 148.228 19.4743 147.968 19.7886C147.702 20.1084 147.382 20.3903 147.003 20.6342C146.623 20.8835 146.195 21.0732 145.713 21.2141C145.231 21.355 144.705 21.4255 144.136 21.4255C142.867 21.4255 141.886 21.1491 141.187 20.6016C140.493 20.0542 140.141 19.2033 140.141 18.0596C140.141 17.3659 140.282 16.7968 140.558 16.3523C140.835 15.9079 141.187 15.561 141.615 15.3062C142.038 15.0515 142.515 14.8672 143.03 14.7588C143.55 14.6504 144.049 14.5745 144.526 14.5258L145.897 14.4119C146.531 14.3632 147.03 14.2927 147.393 14.1897C147.756 14.0867 148.033 13.9512 148.217 13.7724C148.401 13.5935 148.521 13.3659 148.564 13.0894C148.613 12.813 148.634 12.4607 148.634 12.0434C148.634 11.7182 148.575 11.4146 148.45 11.1382C148.325 10.8618 148.13 10.6125 147.87 10.3957C147.605 10.1789 147.268 10.0109 146.851 9.88619C146.434 9.76153 145.924 9.70191 145.317 9.70191C144.25 9.70191 143.388 9.96749 142.732 10.4932C142.076 11.019 141.713 11.8157 141.653 12.8835H140.77C140.829 11.5664 141.252 10.58 142.033 9.92413C142.813 9.26831 143.924 8.93768 145.361 8.93768C146.797 8.93768 147.848 9.21953 148.504 9.78321C149.16 10.3469 149.491 11.084 149.491 12V18.9377C149.491 19.1057 149.491 19.2791 149.502 19.4472C149.507 19.6152 149.534 19.7724 149.583 19.9133C149.632 20.0542 149.708 20.1626 149.816 20.2493C149.924 20.3361 150.081 20.3794 150.282 20.3794C150.434 20.3794 150.656 20.3577 150.932 20.309V21.0515C150.699 21.1111 150.461 21.1436 150.212 21.1436C149.854 21.1436 149.572 21.0949 149.366 21.0027C149.155 20.9106 148.997 20.7859 148.889 20.6287C148.781 20.477 148.705 20.2927 148.667 20.0813C148.629 19.8699 148.607 19.6423 148.607 19.3984V18.7697L148.618 18.7805ZM148.618 14.374C148.401 14.6396 148.071 14.813 147.632 14.9052C147.193 14.9973 146.699 15.0678 146.157 15.1165L144.672 15.2575C144.239 15.3062 143.805 15.3713 143.371 15.4526C142.938 15.5393 142.548 15.6802 142.201 15.8808C141.854 16.0813 141.572 16.3577 141.355 16.7046C141.138 17.0515 141.03 17.5068 141.03 18.0651C141.03 18.9485 141.306 19.5989 141.865 20.0271C142.423 20.4553 143.187 20.6667 144.163 20.6667C145.138 20.6667 145.968 20.4824 146.553 20.1193C147.138 19.7561 147.588 19.3388 147.897 18.8672C148.206 18.3957 148.401 17.9404 148.488 17.4959C148.575 17.0569 148.618 16.7588 148.618 16.6016V14.374Z" fill="white"/>
<path id="Vector_6" d="M152.797 9.21953H153.68V11.6586H153.729C153.821 11.2846 153.984 10.9377 154.217 10.6016C154.45 10.271 154.732 9.97833 155.063 9.72901C155.393 9.47969 155.767 9.28999 156.174 9.14906C156.58 9.00814 157.014 8.93768 157.464 8.93768C158.038 8.93768 158.531 9.01356 158.949 9.15991C159.366 9.30625 159.724 9.50137 160.016 9.73985C160.309 9.97833 160.542 10.2493 160.71 10.5529C160.878 10.8564 160.997 11.1599 161.057 11.4688H161.106C161.464 10.6342 161.935 10.0054 162.531 9.57725C163.128 9.15449 163.913 8.93768 164.889 8.93768C165.431 8.93768 165.93 9.01898 166.385 9.18159C166.84 9.34419 167.236 9.59351 167.567 9.92413C167.897 10.2548 168.157 10.6775 168.342 11.187C168.526 11.6965 168.618 12.3035 168.618 12.9973V21.1436H167.735V12.9756C167.735 12.2168 167.621 11.6206 167.388 11.187C167.155 10.7534 166.878 10.4228 166.564 10.2006C166.244 9.97833 165.93 9.83741 165.61 9.78321C165.29 9.72901 165.046 9.70191 164.878 9.70191C164.336 9.70191 163.838 9.79405 163.382 9.97833C162.927 10.1626 162.531 10.4445 162.201 10.813C161.87 11.1816 161.61 11.6423 161.426 12.1951C161.241 12.7426 161.149 13.3767 161.149 14.0867V21.1436H160.266V12.9756C160.266 12.2331 160.152 11.6423 159.93 11.1978C159.708 10.7588 159.442 10.4282 159.138 10.2114C158.835 9.99459 158.526 9.85367 158.212 9.79405C157.892 9.73443 157.642 9.70191 157.458 9.70191C157.041 9.70191 156.607 9.78863 156.157 9.95665C155.707 10.1247 155.301 10.3903 154.927 10.748C154.553 11.1057 154.255 11.561 154.022 12.1193C153.789 12.6775 153.675 13.3333 153.675 14.0922V21.1491H152.792V9.21953H152.797Z" fill="white"/>
<path id="Vector_7" d="M171.919 6.9702V4.57996H172.802V6.9702H171.919ZM171.919 21.1491V9.21952H172.802V21.1491H171.919Z" fill="white"/>
<path id="Vector_8" d="M177.165 4.57996V21.1491H176.282V4.57996H177.165Z" fill="white"/>
<path id="Vector_9" d="M178.997 9.21953H180.043L184.477 20.103L188.563 9.21953H189.561L184.455 22.4228C184.206 23.0081 183.978 23.5176 183.772 23.9404C183.561 24.3632 183.328 24.6775 183.062 24.8781C182.753 25.1274 182.385 25.2737 181.962 25.3279C181.534 25.3821 180.975 25.4092 180.282 25.4092V24.645C180.916 24.645 181.409 24.5962 181.767 24.4932C182.124 24.3903 182.455 24.1897 182.764 23.8808C182.932 23.7128 183.111 23.3984 183.295 22.9431C183.479 22.4878 183.713 21.8645 183.989 21.0732L178.997 9.21411V9.21953Z" fill="white"/>
<path id="Vector_10" d="M143.49 32.9756C143.49 34.1843 143.312 35.3171 142.959 36.374C142.602 37.4363 142.087 38.3523 141.415 39.1382C140.742 39.9187 139.919 40.5366 138.943 40.981C137.967 41.4309 136.862 41.6531 135.626 41.6531C134.39 41.6531 133.279 41.4309 132.298 40.981C131.317 40.5312 130.488 39.9187 129.816 39.1382C129.144 38.3577 128.629 37.4363 128.271 36.374C127.913 35.3171 127.74 34.1789 127.74 32.9756C127.74 31.7723 127.919 30.6341 128.271 29.5772C128.629 28.5203 129.144 27.5989 129.816 26.813C130.488 26.0325 131.317 25.4146 132.298 24.9702C133.279 24.5203 134.39 24.2981 135.626 24.2981C136.862 24.2981 137.967 24.5203 138.943 24.9702C139.919 25.42 140.742 26.0325 141.415 26.813C142.087 27.5935 142.602 28.5149 142.959 29.5772C143.317 30.6396 143.49 31.7723 143.49 32.9756ZM128.753 32.9756C128.753 34.0434 128.905 35.0515 129.219 35.9946C129.528 36.9377 129.978 37.7615 130.564 38.4661C131.149 39.1707 131.87 39.729 132.721 40.1463C133.572 40.5637 134.536 40.7751 135.621 40.7751C136.705 40.7751 137.664 40.5637 138.509 40.1463C139.355 39.729 140.07 39.1707 140.656 38.4661C141.241 37.7615 141.691 36.9377 142 35.9946C142.309 35.0515 142.466 34.0434 142.466 32.9756C142.466 31.9079 142.309 30.9051 142 29.9566C141.691 29.0135 141.241 28.1897 140.656 27.4851C140.065 26.7805 139.35 26.2222 138.509 25.8049C137.664 25.3875 136.705 25.1761 135.621 25.1761C134.536 25.1761 133.572 25.3875 132.721 25.8049C131.87 26.2222 131.149 26.7859 130.564 27.4851C129.978 28.1897 129.528 29.0135 129.219 29.9566C128.91 30.8997 128.753 31.9079 128.753 32.9756Z" fill="white"/>
<path id="Vector_11" d="M144.678 30.0976V29.3334H146.813V26.8727C146.813 26.4553 146.884 26.0976 147.025 25.7941C147.166 25.4905 147.355 25.2466 147.594 25.0624C147.832 24.8781 148.114 24.7372 148.428 24.645C148.743 24.5529 149.084 24.5041 149.437 24.5041C149.702 24.5041 150.049 24.542 150.483 24.6179V25.3821C150.049 25.3063 149.702 25.2683 149.437 25.2683C148.943 25.2683 148.526 25.3821 148.195 25.6044C147.865 25.8266 147.697 26.271 147.697 26.9377V29.3279H150.179V30.0922H147.697V41.2521H146.813V30.0922H144.678V30.0976Z" fill="white"/>
<path id="Vector_12" d="M150.732 30.0976V29.3334H152.867V26.8727C152.867 26.4553 152.938 26.0976 153.079 25.7941C153.22 25.4905 153.409 25.2466 153.648 25.0624C153.886 24.8781 154.168 24.7372 154.483 24.645C154.797 24.5529 155.138 24.5041 155.491 24.5041C155.756 24.5041 156.103 24.542 156.537 24.6179V25.3821C156.103 25.3063 155.756 25.2683 155.491 25.2683C154.998 25.2683 154.58 25.3821 154.25 25.6044C153.919 25.8266 153.751 26.271 153.751 26.9377V29.3279H156.233V30.0922H153.751V41.2521H152.867V30.0922H150.732V30.0976Z" fill="white"/>
<path id="Vector_13" d="M158.298 27.084V24.6938H159.181V27.084H158.298ZM158.298 41.2629V29.3334H159.181V41.2629H158.298Z" fill="white"/>
<path id="Vector_14" d="M171.431 33.0244C171.382 32.4986 171.246 32.0325 171.024 31.6314C170.802 31.2303 170.509 30.8943 170.152 30.6341C169.794 30.3686 169.382 30.168 168.91 30.0325C168.439 29.8916 167.929 29.8211 167.393 29.8211C166.65 29.8211 165.994 29.9729 165.42 30.271C164.845 30.5691 164.368 30.9756 163.984 31.4797C163.599 31.9837 163.301 32.5528 163.1 33.1978C162.9 33.8428 162.797 34.5041 162.797 35.1816C162.797 35.9837 162.889 36.7263 163.073 37.4092C163.257 38.0921 163.545 38.6829 163.929 39.187C164.314 39.691 164.797 40.0813 165.366 40.3577C165.94 40.6341 166.612 40.7751 167.387 40.7751C167.946 40.7751 168.461 40.6829 168.932 40.4986C169.404 40.3144 169.821 40.0596 170.184 39.7344C170.547 39.4092 170.845 39.019 171.078 38.5637C171.312 38.1084 171.463 37.6097 171.545 37.0677H172.428C172.336 37.7778 172.141 38.4119 171.848 38.9702C171.555 39.5284 171.181 39.9946 170.732 40.374C170.282 40.7534 169.772 41.0406 169.198 41.2466C168.623 41.4471 168.022 41.5501 167.387 41.5501C166.412 41.5501 165.583 41.3767 164.894 41.0298C164.206 40.6829 163.642 40.2114 163.198 39.626C162.753 39.0406 162.433 38.3631 162.222 37.5935C162.011 36.8293 161.908 36.0271 161.908 35.1924C161.908 34.3577 162.027 33.5664 162.265 32.8238C162.504 32.0813 162.856 31.4309 163.322 30.8726C163.788 30.3143 164.358 29.8753 165.041 29.5501C165.723 29.2249 166.504 29.0623 167.382 29.0623C168.032 29.0623 168.639 29.1436 169.203 29.3062C169.767 29.4688 170.271 29.7127 170.71 30.0379C171.149 30.3631 171.512 30.7751 171.788 31.2791C172.065 31.7832 172.238 32.3685 172.298 33.0298H171.414L171.431 33.0244Z" fill="white"/>
<path id="Vector_15" d="M175.284 35.4146V35.5555C175.284 36.2493 175.377 36.916 175.566 37.5501C175.75 38.1843 176.027 38.7425 176.39 39.2195C176.753 39.7019 177.214 40.0759 177.761 40.3577C178.314 40.6341 178.954 40.775 179.68 40.775C180.872 40.775 181.821 40.4607 182.52 39.8374C183.219 39.2141 183.702 38.3414 183.962 37.2249H184.845C184.58 38.6179 184.016 39.6856 183.138 40.4282C182.26 41.1707 181.105 41.5447 179.669 41.5447C178.786 41.5447 178.016 41.3875 177.36 41.0677C176.704 40.7534 176.152 40.3198 175.713 39.7669C175.274 39.2195 174.943 38.5691 174.726 37.8157C174.509 37.0677 174.401 36.2547 174.401 35.3929C174.401 34.5311 174.515 33.7561 174.737 32.9918C174.959 32.2276 175.295 31.5555 175.745 30.9702C176.195 30.3848 176.753 29.9241 177.425 29.5772C178.097 29.2303 178.889 29.0569 179.805 29.0569C180.639 29.0569 181.376 29.2141 182.021 29.523C182.661 29.832 183.203 30.2547 183.637 30.7859C184.07 31.317 184.401 31.9404 184.623 32.645C184.845 33.3496 184.959 34.103 184.959 34.9051C184.959 34.981 184.959 35.0731 184.948 35.1707C184.943 35.2737 184.937 35.355 184.937 35.4146H175.284ZM184.059 34.6504C184.027 34 183.918 33.3875 183.734 32.8076C183.55 32.2276 183.274 31.7181 182.91 31.2737C182.547 30.8347 182.103 30.4824 181.582 30.2168C181.062 29.9512 180.471 29.8211 179.805 29.8211C179.089 29.8211 178.461 29.9566 177.919 30.2276C177.376 30.4986 176.916 30.8563 176.547 31.2954C176.173 31.7344 175.886 32.2493 175.685 32.8401C175.485 33.4309 175.36 34.0325 175.311 34.6504H184.059Z" fill="white"/>
<path id="Vector_16" d="M117.892 0H116.927V46H117.892V0Z" fill="white"/>
</g>
<defs>
<clipPath id="clip0_1083_1993">
<rect width="189.556" height="46" fill="white"/>
</clipPath>
</defs>
</svg>
